<?xml version="1.0" encoding="utf-8"?>
<!-- Generator: Adobe Illustrator 18.0.0, SVG Export Plug-In . SVG Version: 6.00 Build 0)  -->
<!DOCTYPE svg PUBLIC "-//W3C//DTD SVG 1.1//EN" "http://www.w3.org/Graphics/SVG/1.1/DTD/svg11.dtd">
<svg version="1.1" id="Layer_1" xmlns="http://www.w3.org/2000/svg" xmlns:xlink="http://www.w3.org/1999/xlink" x="0px" y="0px"
	 viewBox="0 0 792 612" enable-background="new 0 0 792 612" xml:space="preserve">
<g>
	<path fill="#FFFFFF" d="M101.8,393.4H83.6c-4,0-6.6-0.9-9.7-5.8l-42-73c-0.9-0.9-0.9-1.3-1.3-1.3c-0.4,0-0.9,0.4-0.9,1.3v74.8
		c0,1.8-1.3,4-4,4H4c-1.8,0-4-1.3-4-4V263.3c0-4,3.5-7.1,7.1-7.1h18.6c4,0,5.8,1.8,7.5,5.8L77,338.1c0.9,0.9,0.9,1.3,1.3,1.3
		c0.4,0,0.9-0.4,0.9-1.3v-78.8c0-1.8,1.3-3.5,4-3.5h21.7c1.8,0,4,1.3,4,3.5v126.5C108.8,390.7,105.7,393.4,101.8,393.4"/>
	<path fill="#FFFFFF" d="M209.3,393.4h-20.8c-1.8,0-4-1.3-4-4v-3.1c-7.1,5.3-14.6,8-26.1,8c-16.4,0-31.9-7.5-31.9-31.9v-1.3
		c0-21.7,13.7-31.4,45.6-31.4h10.2v-5.8c0-10.6-5.3-12.8-13.7-12.8c-11.9,0-24.8,0.9-30.5,1.3h-0.9c-1.8,0-3.5-0.9-3.5-3.5v-15
		c0-1.8,1.3-3.5,3.5-4c6.6-1.3,19.5-4,32.3-4c26.5,0,43.4,10.6,43.4,38.1v66.4C212.8,392.1,211.1,393.4,209.3,393.4 M183.2,348.3
		h-10.6c-12.8,0-16.4,4.4-16.4,13.3v1.3c0,7.5,4,9.3,11.5,9.3c5.8,0,10.6-1.8,15.5-4V348.3z"/>
	<path fill="#FFFFFF" d="M368.6,393.4H346c-1.8,0-4-1.8-4-4v-62.8c0-11.9-3.1-15.5-11.1-15.5c-3.5,0-8.8,0.9-14.6,3.5
		c0.4,4,0.4,8,0.4,11.9v62.8c0,1.8-1.3,4-4,4h-22.6c-1.8,0-4-1.8-4-4v-62.8c0-11.9-2.2-15.5-10.6-15.5c-3.5,0-8,1.8-13.7,4.9v73.4
		c0,1.8-1.3,4-4,4h-22.6c-1.8,0-4-1.8-4-4v-98.2c0-1.8,1.3-4,4-4h21.2c1.8,0,4,1.3,4,4v4c7.5-5.3,16.8-9.3,27.4-9.3
		c9.7,0,16.8,3.1,21.7,9.3c10.6-6.2,18.1-9.3,30.1-9.3c24.3,0,31.9,16.4,31.9,40.3V389C373,391.6,371.2,393.4,368.6,393.4"/>
	<path fill="#FFFFFF" d="M479.2,350h-58.8v0.4c0,10.6,4.4,20.4,19,20.4c11.5,0,28.3-0.9,35.4-1.3h0.4c1.8,0,3.5,0.9,3.5,3.1v13.7
		c0,3.1-0.9,4.4-4,4.9c-11.9,3.1-21.7,4.4-38.1,4.4c-22.6,0-46.5-11.9-46.5-47.3v-12.4c0-29.6,17.3-48.7,46.5-48.7
		c30.1,0,45.6,20.8,45.6,48.7v10.6C482.7,348.3,481.4,350,479.2,350 M453.5,330.6c0-13.7-6.2-20.8-16.8-20.8
		c-10.2,0-16.8,7.1-16.8,20.8v0.9h33.6L453.5,330.6L453.5,330.6z"/>
	<path fill="#FFFFFF" d="M526.5,393.4H504c-1.8,0-4-1.8-4-4V254.9c0-1.8,1.8-4,4-4h22.6c1.8,0,3.5,1.3,3.5,4v134.5
		C530.5,391.6,529.2,393.4,526.5,393.4"/>
	<path fill="#FFFFFF" d="M644.7,291.6l-31.4,108.8c-5.8,20.4-13.3,30.1-40.3,30.1c-6.6,0-17.7-1.3-22.6-3.1c-1.8-0.9-4-1.3-4-3.5
		v-15c0-1.8,1.3-3.5,4-3.5h0.4c6.2,0.4,16.8,1.3,23,1.3c6.6,0,10.2-2.2,11.9-9.7l1.3-5.8H584c-6.6,0-12.4-0.9-17.3-17.3l-23.9-83.6
		c0-0.4,0-0.9,0-1.3c0-1.8,0.9-3.1,4-3.1h24.3c1.8,0,3.5,1.3,3.5,3.5l16.8,69.5c0.4,2.2,0.9,3.5,2.2,3.5l0,0h0.9h0.9l17.3-73
		c0.4-1.8,1.8-3.5,4-3.5h24.3c1.8,0,3.5,1.3,3.5,3.5C644.7,291.2,644.7,291.6,644.7,291.6"/>
	<path fill="#0076BF" d="M752.6,181.4l-13.3,27.9c-0.4-0.4-0.9-0.9-1.3-1.3c-1.8-1.8-4.4-3.5-6.6-4.9c-3.1-0.9-5.8-1.8-8.8-1.8
		c-4.4,0-8.8,0.9-11.9,3.5c-4,2.2-6.2,5.8-8,9.7l-24.3,54.9l39.8,18.1l13.3-27.9c0.4,0.4,0.9,1.3,1.3,1.8c1.8,1.8,4,3.5,6.6,4.4
		c3.1,0.9,5.8,1.8,8.8,1.8c4.4,0,8-1.3,11.9-4c3.5-2.2,6.2-5.8,8-9.7l23.9-54.4L752.6,181.4z"/>
</g>
</svg>
